<?xml version="1.0" encoding="UTF-8"?>
<!DOCTYPE svg PUBLIC "-//W3C//DTD SVG 1.1//EN" "http://www.w3.org/Graphics/SVG/1.1/DTD/svg11.dtd">
<!-- Creator: CorelDRAW 2021 (64-Bit) -->
<svg xmlns="http://www.w3.org/2000/svg" xml:space="preserve" width="0.614028in" height="0.166402in" version="1.1" style="shape-rendering:geometricPrecision; text-rendering:geometricPrecision; image-rendering:optimizeQuality; fill-rule:evenodd; clip-rule:evenodd"
viewBox="0 0 49 13.28"
 xmlns:xlink="http://www.w3.org/1999/xlink"
 xmlns:xodm="http://www.corel.com/coreldraw/odm/2003">
 <defs>
  <style type="text/css">
   <![CDATA[
    .fil0 {fill:black;fill-rule:nonzero}
    .fil3 {fill:url(#id0)}
    .fil2 {fill:url(#id1)}
    .fil1 {fill:url(#id2)}
   ]]>
  </style>
  <linearGradient id="id0" gradientUnits="userSpaceOnUse" x1="10.92" y1="3.46" x2="10.92" y2="9.81">
   <stop offset="0" style="stop-opacity:1; stop-color:#01D0FE"/>
   <stop offset="1" style="stop-opacity:1; stop-color:#397CD6"/>
  </linearGradient>
  <linearGradient id="id1" gradientUnits="userSpaceOnUse" x1="6.05" y1="1.86" x2="6.05" y2="11.4">
   <stop offset="0" style="stop-opacity:1; stop-color:#E65E01"/>
   <stop offset="1" style="stop-opacity:1; stop-color:#F9D323"/>
  </linearGradient>
  <linearGradient id="id2" gradientUnits="userSpaceOnUse" x1="1.23" y1="0.16" x2="1.23" y2="13.27">
   <stop offset="0" style="stop-opacity:1; stop-color:#EC018C"/>
   <stop offset="1" style="stop-opacity:1; stop-color:#FC6567"/>
  </linearGradient>
 </defs>
 <g id="Layer_x0020_1">
  <metadata id="CorelCorpID_0Corel-Layer"/>
  <g id="_2213262293024">
   <path class="fil0" d="M16.5 7.85l2.3 0 0 0.53 -2.94 0 0 -4.85 0.64 0 0 4.32zm3.6 0.53l-0.62 0 0 -3.6 0.62 0 0 3.6zm-0.67 -4.56c0,-0.1 0.03,-0.19 0.09,-0.25 0.06,-0.07 0.15,-0.1 0.27,-0.1 0.12,0 0.21,0.03 0.27,0.1 0.06,0.07 0.09,0.15 0.09,0.25 0,0.1 -0.03,0.18 -0.09,0.25 -0.06,0.07 -0.15,0.1 -0.27,0.1 -0.12,0 -0.21,-0.03 -0.27,-0.1 -0.06,-0.07 -0.09,-0.15 -0.09,-0.25zm2.49 0.09l0 0.87 0.67 0 0 0.48 -0.67 0 0 2.23c0,0.14 0.03,0.25 0.09,0.33 0.06,0.07 0.16,0.11 0.31,0.11 0.07,0 0.17,-0.01 0.29,-0.04l0 0.5c-0.16,0.04 -0.32,0.07 -0.47,0.07 -0.28,0 -0.48,-0.08 -0.62,-0.25 -0.14,-0.17 -0.21,-0.4 -0.21,-0.71l0 -2.23 -0.66 0 0 -0.48 0.66 0 0 -0.87 0.62 0zm2.89 4.54c-0.49,0 -0.89,-0.16 -1.19,-0.48 -0.31,-0.32 -0.46,-0.75 -0.46,-1.29l0 -0.11c0,-0.36 0.07,-0.68 0.2,-0.96 0.14,-0.28 0.33,-0.5 0.57,-0.66 0.25,-0.16 0.51,-0.24 0.8,-0.24 0.47,0 0.83,0.15 1.09,0.46 0.26,0.31 0.39,0.75 0.39,1.33l0 0.26 -2.44 0c0.01,0.35 0.11,0.64 0.31,0.86 0.2,0.22 0.45,0.33 0.76,0.33 0.22,0 0.4,-0.04 0.55,-0.13 0.15,-0.09 0.28,-0.21 0.4,-0.35l0.38 0.29c-0.3,0.46 -0.76,0.7 -1.36,0.7zm-0.08 -3.23c-0.25,0 -0.46,0.09 -0.63,0.27 -0.17,0.18 -0.27,0.44 -0.31,0.76l1.8 0 0 -0.05c-0.02,-0.32 -0.1,-0.56 -0.25,-0.73 -0.15,-0.17 -0.36,-0.26 -0.61,-0.26zm3.93 0.11c-0.09,-0.02 -0.19,-0.02 -0.3,-0.02 -0.4,0 -0.68,0.17 -0.82,0.52l0 2.56 -0.62 0 0 -3.6 0.6 0 0.01 0.41c0.2,-0.32 0.49,-0.48 0.86,-0.48 0.12,0 0.21,0.02 0.27,0.05l0 0.57zm2.66 3.05c-0.04,-0.07 -0.06,-0.2 -0.09,-0.38 -0.29,0.3 -0.63,0.45 -1.03,0.45 -0.36,0 -0.65,-0.1 -0.87,-0.3 -0.23,-0.2 -0.34,-0.46 -0.34,-0.76 0,-0.38 0.14,-0.67 0.43,-0.87 0.29,-0.21 0.69,-0.31 1.2,-0.31l0.6 0 0 -0.28c0,-0.21 -0.06,-0.39 -0.19,-0.51 -0.13,-0.13 -0.32,-0.19 -0.57,-0.19 -0.22,0 -0.4,0.06 -0.55,0.17 -0.15,0.11 -0.22,0.25 -0.22,0.4l-0.62 0c0,-0.18 0.06,-0.35 0.19,-0.52 0.13,-0.17 0.3,-0.3 0.52,-0.4 0.22,-0.1 0.46,-0.15 0.72,-0.15 0.41,0 0.74,0.1 0.98,0.31 0.24,0.21 0.36,0.49 0.37,0.86l0 1.66c0,0.33 0.04,0.59 0.13,0.79l0 0.05 -0.65 0zm-1.02 -0.46c0.19,0 0.38,-0.05 0.55,-0.15 0.17,-0.1 0.3,-0.23 0.38,-0.39l0 -0.75 -0.48 0c-0.75,0 -1.13,0.22 -1.13,0.67 0,0.19 0.06,0.35 0.19,0.46 0.13,0.11 0.29,0.16 0.5,0.16zm4.61 -0.5c0,-0.17 -0.06,-0.3 -0.19,-0.39 -0.13,-0.09 -0.34,-0.17 -0.66,-0.24 -0.31,-0.07 -0.56,-0.15 -0.74,-0.24 -0.18,-0.09 -0.32,-0.2 -0.41,-0.33 -0.09,-0.13 -0.13,-0.28 -0.13,-0.46 0,-0.3 0.13,-0.55 0.37,-0.75 0.25,-0.2 0.57,-0.31 0.96,-0.31 0.41,0 0.74,0.11 0.99,0.32 0.25,0.21 0.38,0.48 0.38,0.81l-0.62 0c0,-0.17 -0.07,-0.32 -0.21,-0.44 -0.14,-0.12 -0.32,-0.18 -0.54,-0.18 -0.23,0 -0.4,0.05 -0.53,0.15 -0.13,0.1 -0.19,0.22 -0.19,0.38 0,0.15 0.06,0.26 0.18,0.34 0.12,0.08 0.33,0.15 0.64,0.22 0.31,0.07 0.56,0.15 0.75,0.25 0.19,0.1 0.33,0.21 0.42,0.35 0.09,0.13 0.14,0.3 0.14,0.49 0,0.32 -0.13,0.58 -0.39,0.77 -0.26,0.19 -0.59,0.29 -1,0.29 -0.29,0 -0.54,-0.05 -0.77,-0.15 -0.22,-0.1 -0.4,-0.24 -0.52,-0.43 -0.13,-0.18 -0.19,-0.38 -0.19,-0.59l0.62 0c0.01,0.21 0.09,0.37 0.25,0.49 0.15,0.12 0.36,0.18 0.61,0.18 0.23,0 0.42,-0.05 0.56,-0.14 0.14,-0.09 0.21,-0.22 0.21,-0.38zm2.09 0.96l-0.62 0 0 -3.6 0.62 0 0 3.6zm-0.67 -4.56c0,-0.1 0.03,-0.19 0.09,-0.25 0.06,-0.07 0.15,-0.1 0.27,-0.1 0.12,0 0.21,0.03 0.27,0.1 0.06,0.07 0.09,0.15 0.09,0.25 0,0.1 -0.03,0.18 -0.09,0.25 -0.06,0.07 -0.15,0.1 -0.27,0.1 -0.12,0 -0.21,-0.03 -0.27,-0.1 -0.06,-0.07 -0.09,-0.15 -0.09,-0.25zm3.14 2.61l-0.52 0.56 0 1.39 -1 0 0 -4.85 1 0 0 2.2 0.44 -0.6 1.24 -1.59 1.23 0 -1.72 2.16 1.77 2.69 -1.19 0 -1.25 -1.95zm4.83 1.58c-0.24,0.29 -0.57,0.43 -0.99,0.43 -0.39,0 -0.68,-0.11 -0.88,-0.33 -0.2,-0.22 -0.31,-0.55 -0.31,-0.98l0 -2.36 0.96 0 0 2.33c0,0.38 0.17,0.56 0.51,0.56 0.33,0 0.55,-0.11 0.67,-0.34l0 -2.55 0.96 0 0 3.6 -0.91 0 -0.03 -0.37zm3 -1l0.67 -2.24 1.03 0 -1.45 4.16 -0.08 0.19c-0.21,0.47 -0.57,0.71 -1.07,0.71 -0.14,0 -0.28,-0.02 -0.43,-0.06l0 -0.73 0.15 0c0.18,0 0.32,-0.03 0.41,-0.08 0.09,-0.06 0.16,-0.15 0.21,-0.28l0.11 -0.3 -1.26 -3.61 1.04 0 0.67 2.24z"/>
   <g>
    <rect class="fil1" x="-0" width="2.44" height="13.28" rx="1.22" ry="1.22"/>
    <rect class="fil2" x="4.85" y="1.87" width="2.44" height="9.53" rx="1.22" ry="0.88"/>
    <rect class="fil3" x="9.69" y="3.46" width="2.44" height="6.35" rx="1.22" ry="0.58"/>
   </g>
  </g>
 </g>
</svg>
